<?xml version="1.0" encoding="iso-8859-1"?>
<!-- Generator: Adobe Illustrator 18.0.0, SVG Export Plug-In . SVG Version: 6.00 Build 0)  -->
<!DOCTYPE svg PUBLIC "-//W3C//DTD SVG 1.1//EN" "http://www.w3.org/Graphics/SVG/1.1/DTD/svg11.dtd">
<svg version="1.1" id="Capa_1" xmlns="http://www.w3.org/2000/svg" xmlns:xlink="http://www.w3.org/1999/xlink" x="0px" y="0px"
	 viewBox="0 0 435 435" style="enable-background:new 0 0 435 435;" xml:space="preserve">
<path d="M272.018,73.096h6.358c9.719,0,17.626-7.907,17.626-17.627V28.915c0-9.72-7.907-17.627-17.626-17.627h-6.358
	c-9.72,0-17.627,7.907-17.627,17.627v6.782H247V29.5C247,13.233,233.766,0,217.5,0S188,13.233,188,29.5v6.197h-7.391v-6.782
	c0-9.72-7.907-17.627-17.627-17.627h-6.358c-9.719,0-17.626,7.907-17.626,17.627v26.554c0,9.72,7.907,17.627,17.626,17.627h6.358
	c9.72,0,17.627-7.907,17.627-17.627v-6.771H188v4.948c0,10.505-5.298,20.133-14.173,25.753l-3.109,1.97
	c-12.66,8.018-20.218,21.75-20.218,36.735v200.095c0,15.63,8.448,30.127,22.046,37.832c9.532,5.401,15.454,15.563,15.454,26.521
	v4.301h-7.391v-6.782c0-9.72-7.907-17.627-17.627-17.627h-6.358c-9.719,0-17.626,7.907-17.626,17.627v26.554
	c0,9.72,7.907,17.627,17.626,17.627h6.358c9.72,0,17.627-7.907,17.627-17.627v-6.771H188v5.648c0,16.267,13.234,29.5,29.5,29.5
	c16.266,0,29.5-13.233,29.5-29.5v-5.648h7.391v6.771c0,9.72,7.907,17.627,17.627,17.627h6.358c9.719,0,17.626-7.907,17.626-17.627
	v-26.554c0-9.72-7.907-17.627-17.626-17.627h-6.358c-9.72,0-17.627,7.907-17.627,17.627v6.782H247v-4.301
	c0-10.957,5.922-21.119,15.455-26.521c13.598-7.705,22.045-22.202,22.045-37.832V118.104c0-14.985-7.558-28.718-20.217-36.735
	l-3.11-1.97C252.298,73.777,247,64.15,247,53.646v-4.948h7.391v6.771C254.391,65.188,262.298,73.096,272.018,73.096z
	 M267.391,28.915c0-2.552,2.076-4.627,4.627-4.627h6.358c2.551,0,4.626,2.075,4.626,4.627v26.554c0,2.552-2.075,4.627-4.626,4.627
	h-6.358c-2.551,0-4.627-2.075-4.627-4.627V28.915z M167.609,55.469c0,2.552-2.076,4.627-4.627,4.627h-6.358
	c-2.551,0-4.626-2.075-4.626-4.627V28.915c0-2.552,2.075-4.627,4.626-4.627h6.358c2.551,0,4.627,2.075,4.627,4.627V55.469z
	 M167.609,406.623c0,2.552-2.076,4.627-4.627,4.627h-6.358c-2.551,0-4.626-2.075-4.626-4.627v-26.554
	c0-2.552,2.075-4.627,4.626-4.627h6.358c2.551,0,4.627,2.075,4.627,4.627V406.623z M267.391,380.069
	c0-2.552,2.076-4.627,4.627-4.627h6.358c2.551,0,4.626,2.075,4.626,4.627v26.554c0,2.552-2.075,4.627-4.626,4.627h-6.358
	c-2.551,0-4.627-2.075-4.627-4.627V380.069z M201,29.5c0-9.098,7.402-16.5,16.5-16.5c9.098,0,16.5,7.402,16.5,16.5v6.197h-10V30.75
	c0-3.59-2.91-6.5-6.5-6.5s-6.5,2.91-6.5,6.5v4.947h-10V29.5z M234,405.5c0,9.098-7.402,16.5-16.5,16.5h0
	c-9.098,0-16.5-7.402-16.5-16.5v-5.648h10v4.898c0,3.59,2.91,6.5,6.5,6.5s6.5-2.91,6.5-6.5v-4.898h10V405.5z M254.217,90.381
	l3.11,1.97c8.874,5.62,14.172,15.248,14.172,25.753v200.095c0,10.958-5.922,21.12-15.455,26.521
	C242.447,352.426,234,366.921,234,382.551v4.301h-10V373.75c0-3.59-2.91-6.5-6.5-6.5s-6.5,2.91-6.5,6.5v13.102h-10v-4.301
	c0-15.63-8.447-30.126-22.045-37.831c-9.533-5.401-15.455-15.564-15.455-26.521V118.104c0-10.505,5.298-20.132,14.173-25.753
	l3.109-1.97C193.442,82.363,201,68.631,201,53.646v-4.948h10V61.75c0,3.59,2.91,6.5,6.5,6.5s6.5-2.91,6.5-6.5V48.697h10v4.948
	C234,68.631,241.558,82.363,254.217,90.381z"/>
<g>
</g>
<g>
</g>
<g>
</g>
<g>
</g>
<g>
</g>
<g>
</g>
<g>
</g>
<g>
</g>
<g>
</g>
<g>
</g>
<g>
</g>
<g>
</g>
<g>
</g>
<g>
</g>
<g>
</g>
</svg>
