<?xml version="1.0" encoding="iso-8859-1"?>
<!-- Generator: Adobe Illustrator 18.0.0, SVG Export Plug-In . SVG Version: 6.00 Build 0)  -->
<!DOCTYPE svg PUBLIC "-//W3C//DTD SVG 1.1//EN" "http://www.w3.org/Graphics/SVG/1.1/DTD/svg11.dtd">
<svg version="1.1" id="Capa_1" xmlns="http://www.w3.org/2000/svg" xmlns:xlink="http://www.w3.org/1999/xlink" x="0px" y="0px" viewBox="0 0 391.631 391.631" style="enable-background:new 0 0 391.631 391.631;" xml:space="preserve">

<path d="M263.115,246.122c-8.319-8.403-6.146-14.684-0.438-28.086c3.784-8.884,8.072-18.952,7.33-30.99
	c-0.96-15.558-13.411-43.927-52.878-46.599v-73.68h18.594c4.143,0,7.5-3.357,7.5-7.5V17.822c0-4.143-3.357-7.5-7.5-7.5h-18.594
	V7.5c0-4.142-3.357-7.5-7.5-7.5h-27.627c-4.143,0-7.5,3.358-7.5,7.5v2.822h-18.594c-4.142,0-7.5,3.357-7.5,7.5v41.445
	c0,4.143,3.358,7.5,7.5,7.5h18.594v73.666c-39.47,2.635-51.921,31.055-52.878,46.613c-0.742,12.037,3.546,22.105,7.329,30.989
	c5.708,13.402,7.882,19.683-0.437,28.086c-18.189,18.377-35.947,38.909-35.947,69.872c0,24.225,9.6,43.854,27.761,56.768
	c17.608,12.52,43.006,18.869,75.485,18.869c32.479,0,57.875-6.349,75.484-18.869c18.161-12.913,27.761-32.543,27.761-56.768
	C299.061,285.03,281.303,264.498,263.115,246.122z M217.129,25.322h11.094v26.445h-11.094V25.322z M195.816,243.799
	c7.496,0,13.595,6.099,13.595,13.596c0,7.496-6.099,13.594-13.595,13.594c-7.496,0-13.595-6.098-13.595-13.594
	C182.221,249.898,188.32,243.799,195.816,243.799z M202.129,15v214.51c-2.032-0.46-4.144-0.711-6.314-0.711
	c-2.17,0-4.281,0.251-6.313,0.711V15H202.129z M163.409,51.768V25.322h11.094v26.445H163.409z M195.816,376.631
	c-40.258,0-88.246-10.52-88.246-60.637c0-25.291,14.951-42.491,31.607-59.319c15.757-15.919,9.004-31.775,3.577-44.517
	c-3.285-7.714-6.683-15.69-6.158-24.19c0.079-1.282,2.249-29.63,37.906-32.506v82.895c-4.524,5.061-7.281,11.731-7.281,19.037
	c0,15.767,12.827,28.594,28.595,28.594s28.595-12.827,28.595-28.594c0-7.306-2.757-13.977-7.281-19.037v-82.9
	c35.633,2.874,37.828,31.228,37.907,32.512c0.523,8.499-2.874,16.476-6.159,24.189c-5.427,12.742-12.182,28.599,3.577,44.518
	c16.655,16.827,31.607,34.027,31.607,59.319C284.061,366.111,236.073,376.631,195.816,376.631z"/>

	<path d="M223.016,326.719h-54.401c-4.143,0-7.5-3.357-7.5-7.5c0-4.143,3.357-7.5,7.5-7.5h54.401c4.142,0,7.5,3.357,7.5,7.5 C230.516,323.361,227.159,326.719,223.016,326.719z"/>
	
</svg>
